<svg
  width="100%"
  height="100%"
  viewBox="0 0 134 29"
  version="1.1"
    xmlns="http://www.w3.org/2000/svg"
    xmlns:xlink="http://www.w3.org/1999/xlink"
  xml:space="preserve"
  style="fill-rule:evenodd;clip-rule:evenodd;stroke-linejoin:round;stroke-miterlimit:1.41421;">
    <g>
        <path
          d="M74.631,18.142l0,-7.921c0,-4.231 -1.583,-5.761 -5.917,-5.761l-4.588,0l0,20.163l4.565,0c4.415,0 5.94,-2.194 5.94,-6.481ZM71.673,10.941l0,6.481c0,2.97 0.173,5.041 -2.959,5.041l-1.63,0l0,-15.843l1.572,0c2.936,0 3.017,1.564 3.017,4.321Z"
          style="fill:#0cc4c6;fill-rule:nonzero;"/>
        <path d="M83.877,15.262l0,-2.161l-3.698,0l0,-6.481l5.177,0l0,-2.16l-8.136,0l0,20.163l8.136,0l0,-2.16l-5.177,0l0,-7.201l3.698,0Z" style="fill:#0cc4c6;fill-rule:nonzero;"/>
        <path
          d="M94.787,10.221l2.959,-0.72c-0.266,-3.274 -2.254,-5.243 -5.918,-5.243c-3.108,0 -5.189,1.867 -5.189,4.86c0,2.138 0.96,3.736 2.231,4.704l3.698,2.88c1.075,0.844 2.219,1.789 2.219,3.6c0,1.441 -0.74,2.161 -2.219,2.161c-2.242,0 -2.854,-2.239 -2.959,-4.321l-2.958,0.72c0.219,3.522 2.045,5.964 5.917,5.964c3.109,0 5.178,-1.722 5.178,-4.715c0,-2.576 -1.445,-4.377 -2.959,-5.569l-3.698,-2.881c-0.809,-0.63 -1.48,-1.598 -1.48,-2.846c0,-1.373 0.786,-2.195 2.219,-2.195c2.092,0 2.832,1.688 2.959,3.601Z"
          style="fill:#0cc4c6;fill-rule:nonzero;"/>
        <rect x="100.046" y="4.46" width="2.959" height="20.163" style="fill:#0cc4c6;fill-rule:nonzero;"/>
        <path
          d="M111.719,22.463c-2.555,0 -2.959,-2.386 -2.959,-5.041l0,-6.481c0,-2.453 0.601,-4.321 3.074,-4.321c2.473,0 2.67,1.868 2.67,4.321l2.959,0c0,-4.05 -1.491,-6.683 -5.629,-6.683c-4.449,0 -6.033,3.071 -6.033,7.403l0,5.108c0,4.749 1.087,8.057 5.918,8.057c1.675,0 2.519,-1.171 2.958,-2.363l0.74,2.16l2.219,0l0,-10.059l-5.917,0l0,2.138l2.958,0l0,0.72c0,2.633 -0.416,5.041 -2.958,5.041Z"
          style="fill:#0cc4c6;fill-rule:nonzero;"/>
        <path d="M128.28,24.623l2.104,0l0,-20.163l-2.959,0l0,12.467l-5.178,-12.467l-2.219,0l0,20.163l2.959,0l0,-13.412l5.293,13.412Z" style="fill:#0cc4c6;fill-rule:nonzero;"/>
    </g>
    <g>
        <g>
            <path
            d="M37.434,21.4l0,-3.982c0,-2.127 -0.856,-2.896 -3.198,-2.896l-2.479,0l0,10.136l2.466,0c2.386,0 3.211,-1.103 3.211,-3.258ZM35.835,17.78l0,3.258c0,1.493 0.093,2.534 -1.599,2.534l-0.881,0l0,-7.964l0.85,0c1.586,0 1.63,0.786 1.63,2.172Z"
            style="fill:#fcbe06;fill-rule:nonzero;"/>
            <path d="M38.42,14.522l0.4,2.624l0.799,0l0.4,-2.624l-1.599,0Z" style="fill:#fcbe06;fill-rule:nonzero;"/>
            <path d="M44.828,19.952l0,-1.086l-1.999,0l0,-3.258l2.798,0l0,-1.086l-4.396,0l0,10.136l4.396,0l0,-1.086l-2.798,0l0,-3.62l1.999,0Z" style="fill:#fcbe06;fill-rule:nonzero;"/>
            <path d="M46.608,24.658l4.396,0l0,-1.086l-2.798,0l0,-9.05l-1.598,0l0,10.136Z" style="fill:#fcbe06;fill-rule:nonzero;"/>
            <rect x="51.822" y="14.522" width="1.599" height="10.137" style="fill:#fcbe06;fill-rule:nonzero;"/>
            <path d="M56.575,22.124l1.998,0l0.6,2.534l1.599,0l-2.398,-10.136l-1.599,0l-2.398,10.136l1.598,0l0.6,-2.534ZM58.374,21.038l-1.599,0l0.799,-4.344l0.8,4.344Z" style="fill:#fcbe06;fill-rule:nonzero;"/>
        </g>
        <g>
            <path d="M31.732,12.267l0,0.931l0.707,0c1.725,0 2.123,-0.669 2.123,-2.172l0,-6.514l-1.415,0l0,6.514c0,1.042 -0.254,1.241 -1.415,1.241Z" style="fill:#e5554e;fill-rule:nonzero;"/>
            <path d="M37.222,11.026l1.769,0l0.531,2.172l1.415,0l-2.123,-8.686l-1.415,0l-2.123,8.686l1.415,0l0.531,-2.172ZM38.814,10.096l-1.415,0l0.707,-3.723l0.708,3.723Z" style="fill:#e5554e;fill-rule:nonzero;"/>
            <path
            d="M46.737,10.406l0,-0.31l-1.416,0l0,0.31c0,0.95 -0.138,1.861 -1.221,1.861c-1.079,0 -1.305,-0.911 -1.305,-1.861l0,-3.102c0,-1.057 0.121,-1.861 1.305,-1.861c1.183,0 1.221,0.804 1.221,1.861l1.416,0c0,-1.745 -0.642,-2.879 -2.637,-2.879c-2.129,0 -2.721,1.323 -2.721,3.189l0,2.477c0,1.866 0.592,3.194 2.721,3.194c1.984,0 2.637,-1.154 2.637,-2.879Z"
            style="fill:#e5554e;fill-rule:nonzero;"/>
            <path d="M53.338,13.198l-2.482,-5.274l2.128,-3.412l-1.769,0l-2.123,3.723l0,-3.723l-1.415,0l0,8.686l1.415,0l0,-2.792l0.708,-1.241l1.769,4.033l1.769,0Z" style="fill:#e5554e;fill-rule:nonzero;"/>
            <rect x="53.924" y="4.512" width="1.415" height="8.686" style="fill:#e5554e;fill-rule:nonzero;"/>
            <path d="M60.039,9.165l0,-0.93l-1.769,0l0,-2.792l2.477,0l0,-0.931l-3.893,0l0,8.686l3.893,0l0,-0.931l-2.477,0l0,-3.102l1.769,0Z" style="fill:#e5554e;fill-rule:nonzero;"/>
        </g>
    </g>
    <g>
        <path d="M12.715,20.867c0,-2.58 0,-4.955 0,-7.196c0,-4.685 2.862,-8.462 8.184,-7.851c-0.483,14.494 -7.821,11.562 -8.184,15.047Z" style="fill:#fcbe06;fill-rule:nonzero;stroke-width:0.61px;stroke:#fff;"/>
        <path d="M15.065,21.309c0,-2.581 0,-4.956 0,-7.197c0,-4.685 -2.862,-8.462 -8.184,-7.85c0.483,14.494 7.821,11.561 8.184,15.047Z" style="fill:#ff9200;fill-rule:nonzero;stroke-width:0.61px;stroke:#fff;"/>
        <path d="M12.295,18.455c1.226,-1.229 2.461,-2.355 3.525,-3.423c2.225,-2.232 2.169,-6.591 -1.56,-11.058c-6.571,7.337 -0.544,12.496 -1.965,14.481Z" style="fill:#0cc66f;fill-rule:nonzero;stroke-width:0.61px;stroke:#fff;"/>
        <path d="M14.021,24.092c0,-3.662 0,-3.116 0,-6.296c0,-6.65 -3.918,-9.991 -11.205,-9.123c1.348,17.154 10.654,9.059 11.205,15.419Z" style="fill:#0cc4c6;fill-rule:nonzero;stroke-width:0.61px;stroke:#fff;"/>
        <path d="M14.109,24.142c0,-3.707 0,-3.155 0,-6.373c0,-6.731 3.91,-10.113 11.181,-9.235c-1.344,17.364 -10.631,9.17 -11.181,15.608Z" style="fill:#e5554e;fill-rule:nonzero;stroke-width:0.61px;stroke:#fff;"/>
    </g>
</svg>