<?xml version="1.0" standalone="no"?>
<!DOCTYPE svg PUBLIC "-//W3C//DTD SVG 20010904//EN"
 "http://www.w3.org/TR/2001/REC-SVG-20010904/DTD/svg10.dtd">
<svg version="1.0" xmlns="http://www.w3.org/2000/svg"
 width="700.000000pt" height="700.000000pt" viewBox="0 0 700.000000 700.000000"
 preserveAspectRatio="xMidYMid meet">
<metadata>
Created by potrace 1.11, written by Peter Selinger 2001-2013
</metadata>
<g transform="translate(0.000000,700.000000) scale(0.100000,-0.100000)"
fill="#000000" stroke="none">
<path d="M3520 6515 c-14 -7 -57 -51 -95 -97 -38 -45 -72 -85 -76 -88 -19 -16
-187 -241 -248 -334 -71 -106 -171 -273 -221 -368 l-24 -46 -26 18 c-46 32
-204 107 -304 145 -295 109 -630 153 -996 130 -205 -13 -214 -22 -205 -222 8
-188 20 -365 30 -461 2 -23 0 -23 -44 -18 -244 32 -730 27 -1050 -10 -112 -12
-134 -44 -121 -169 5 -44 11 -111 15 -150 8 -97 24 -247 30 -290 2 -11 13 -90
24 -175 28 -202 21 -160 96 -560 14 -76 118 -463 153 -570 49 -151 109 -314
147 -395 15 -33 36 -80 47 -105 35 -80 150 -283 217 -380 118 -171 273 -345
413 -461 194 -161 489 -313 763 -393 168 -50 190 -56 210 -59 11 -2 31 -7 45
-10 32 -9 268 -66 295 -72 11 -3 29 -7 40 -9 254 -57 469 -160 564 -270 13
-15 29 -33 35 -40 70 -74 143 -274 161 -439 9 -81 21 -103 72 -128 71 -34 125
-6 138 75 4 22 9 48 10 56 2 8 6 38 9 65 4 28 14 73 22 100 74 254 211 400
471 499 75 28 217 72 260 80 56 10 540 134 608 156 343 111 660 297 864 510
82 85 138 148 161 179 14 19 31 40 37 47 24 24 157 229 200 309 131 239 234
492 323 790 23 77 43 147 45 155 2 8 19 80 39 160 29 122 50 222 80 390 3 14
11 61 20 105 8 44 18 105 21 135 3 30 8 66 10 80 2 14 7 45 10 70 4 25 8 56
10 70 13 89 15 111 20 160 3 30 7 75 10 100 6 58 13 128 21 215 3 38 7 77 9
87 2 9 -1 33 -6 52 -12 45 -45 63 -130 71 -35 3 -78 8 -94 10 -201 26 -790 26
-947 0 -12 -2 -47 -6 -76 -9 -30 -3 -58 -9 -64 -12 -9 -6 -9 12 8 192 9 102
27 429 27 505 0 35 -26 83 -50 93 -50 20 -488 29 -628 13 -175 -21 -346 -60
-499 -113 -76 -27 -93 -34 -198 -83 -37 -17 -69 -31 -72 -31 -4 0 -106 167
-106 174 0 5 -78 121 -165 246 -76 109 -238 311 -259 323 -31 17 -58 18 -86 2z"/>
</g>
</svg>
